<mxfile host="app.diagrams.net" modified="2023-05-26T07:19:59.230Z" agent="Mozilla/5.0 (Windows NT 10.0; Win64; x64) AppleWebKit/537.36 (KHTML, like Gecko) Chrome/112.0.0.0 Safari/537.36" etag="VMhb8MOjtsa70P-X1vTn" version="21.1.9" type="github">
  <diagram name="第 1 页" id="O7_HP3USzXjA6A4vx0tH">
    <mxGraphModel dx="1434" dy="788" grid="1" gridSize="10" guides="1" tooltips="1" connect="1" arrows="1" fold="1" page="1" pageScale="1" pageWidth="827" pageHeight="1169" math="0" shadow="0">
      <root>
        <mxCell id="0" />
        <mxCell id="1" parent="0" />
        <mxCell id="vR_F0ComAz1rM-JYzLv0-3" style="edgeStyle=orthogonalEdgeStyle;rounded=0;orthogonalLoop=1;jettySize=auto;html=1;" edge="1" parent="1" source="vR_F0ComAz1rM-JYzLv0-1" target="vR_F0ComAz1rM-JYzLv0-2">
          <mxGeometry relative="1" as="geometry" />
        </mxCell>
        <mxCell id="vR_F0ComAz1rM-JYzLv0-6" style="edgeStyle=orthogonalEdgeStyle;rounded=0;orthogonalLoop=1;jettySize=auto;html=1;" edge="1" parent="1" source="vR_F0ComAz1rM-JYzLv0-1" target="vR_F0ComAz1rM-JYzLv0-5">
          <mxGeometry relative="1" as="geometry" />
        </mxCell>
        <mxCell id="vR_F0ComAz1rM-JYzLv0-1" value="周界入侵 记录（ofvs_event_record）" style="rounded=0;whiteSpace=wrap;html=1;" vertex="1" parent="1">
          <mxGeometry x="70" y="320" width="150" height="50" as="geometry" />
        </mxCell>
        <mxCell id="vR_F0ComAz1rM-JYzLv0-2" value="组织机构（system_organization）" style="rounded=0;whiteSpace=wrap;html=1;" vertex="1" parent="1">
          <mxGeometry x="160" y="130" width="276" height="50" as="geometry" />
        </mxCell>
        <mxCell id="vR_F0ComAz1rM-JYzLv0-4" value="org_id" style="text;html=1;strokeColor=none;fillColor=none;align=center;verticalAlign=middle;whiteSpace=wrap;rounded=0;" vertex="1" parent="1">
          <mxGeometry x="200" y="218" width="60" height="30" as="geometry" />
        </mxCell>
        <mxCell id="vR_F0ComAz1rM-JYzLv0-14" style="edgeStyle=orthogonalEdgeStyle;rounded=0;orthogonalLoop=1;jettySize=auto;html=1;entryX=0.5;entryY=1;entryDx=0;entryDy=0;" edge="1" parent="1" source="vR_F0ComAz1rM-JYzLv0-5" target="vR_F0ComAz1rM-JYzLv0-2">
          <mxGeometry relative="1" as="geometry" />
        </mxCell>
        <mxCell id="vR_F0ComAz1rM-JYzLv0-23" style="edgeStyle=orthogonalEdgeStyle;rounded=0;orthogonalLoop=1;jettySize=auto;html=1;entryX=0;entryY=0.5;entryDx=0;entryDy=0;" edge="1" parent="1" source="vR_F0ComAz1rM-JYzLv0-5" target="vR_F0ComAz1rM-JYzLv0-15">
          <mxGeometry relative="1" as="geometry" />
        </mxCell>
        <mxCell id="vR_F0ComAz1rM-JYzLv0-28" style="edgeStyle=orthogonalEdgeStyle;rounded=0;orthogonalLoop=1;jettySize=auto;html=1;entryX=0.5;entryY=0;entryDx=0;entryDy=0;" edge="1" parent="1" source="vR_F0ComAz1rM-JYzLv0-5" target="vR_F0ComAz1rM-JYzLv0-16">
          <mxGeometry relative="1" as="geometry" />
        </mxCell>
        <mxCell id="vR_F0ComAz1rM-JYzLv0-5" value="监控区域（system_org_area）" style="rounded=0;whiteSpace=wrap;html=1;" vertex="1" parent="1">
          <mxGeometry x="380" y="320" width="150" height="50" as="geometry" />
        </mxCell>
        <mxCell id="vR_F0ComAz1rM-JYzLv0-7" value="area_id" style="text;html=1;strokeColor=none;fillColor=none;align=center;verticalAlign=middle;whiteSpace=wrap;rounded=0;" vertex="1" parent="1">
          <mxGeometry x="280" y="310" width="60" height="30" as="geometry" />
        </mxCell>
        <mxCell id="vR_F0ComAz1rM-JYzLv0-12" style="edgeStyle=orthogonalEdgeStyle;rounded=0;orthogonalLoop=1;jettySize=auto;html=1;" edge="1" parent="1" source="vR_F0ComAz1rM-JYzLv0-10" target="vR_F0ComAz1rM-JYzLv0-1">
          <mxGeometry relative="1" as="geometry" />
        </mxCell>
        <mxCell id="vR_F0ComAz1rM-JYzLv0-10" value="start_time" style="whiteSpace=wrap;html=1;aspect=fixed;" vertex="1" parent="1">
          <mxGeometry x="50" y="420" width="60" height="60" as="geometry" />
        </mxCell>
        <mxCell id="vR_F0ComAz1rM-JYzLv0-13" style="edgeStyle=orthogonalEdgeStyle;rounded=0;orthogonalLoop=1;jettySize=auto;html=1;" edge="1" parent="1" source="vR_F0ComAz1rM-JYzLv0-11" target="vR_F0ComAz1rM-JYzLv0-1">
          <mxGeometry relative="1" as="geometry" />
        </mxCell>
        <mxCell id="vR_F0ComAz1rM-JYzLv0-11" value="stop_time" style="whiteSpace=wrap;html=1;aspect=fixed;" vertex="1" parent="1">
          <mxGeometry x="180" y="420" width="60" height="60" as="geometry" />
        </mxCell>
        <mxCell id="vR_F0ComAz1rM-JYzLv0-20" style="edgeStyle=orthogonalEdgeStyle;rounded=0;orthogonalLoop=1;jettySize=auto;html=1;entryX=0.5;entryY=1;entryDx=0;entryDy=0;" edge="1" parent="1" source="vR_F0ComAz1rM-JYzLv0-15" target="vR_F0ComAz1rM-JYzLv0-16">
          <mxGeometry relative="1" as="geometry" />
        </mxCell>
        <mxCell id="vR_F0ComAz1rM-JYzLv0-15" value="摄像头配置（vms_ipc_cvr）" style="rounded=0;whiteSpace=wrap;html=1;" vertex="1" parent="1">
          <mxGeometry x="630" y="320" width="150" height="50" as="geometry" />
        </mxCell>
        <mxCell id="vR_F0ComAz1rM-JYzLv0-18" style="edgeStyle=orthogonalEdgeStyle;rounded=0;orthogonalLoop=1;jettySize=auto;html=1;entryX=1;entryY=0.5;entryDx=0;entryDy=0;" edge="1" parent="1" source="vR_F0ComAz1rM-JYzLv0-16" target="vR_F0ComAz1rM-JYzLv0-2">
          <mxGeometry relative="1" as="geometry" />
        </mxCell>
        <mxCell id="vR_F0ComAz1rM-JYzLv0-16" value="设备资源信息表（system_org_device）" style="rounded=0;whiteSpace=wrap;html=1;" vertex="1" parent="1">
          <mxGeometry x="630" y="130" width="150" height="50" as="geometry" />
        </mxCell>
        <mxCell id="vR_F0ComAz1rM-JYzLv0-19" value="org_id" style="text;html=1;strokeColor=none;fillColor=none;align=center;verticalAlign=middle;whiteSpace=wrap;rounded=0;" vertex="1" parent="1">
          <mxGeometry x="504" y="120" width="60" height="30" as="geometry" />
        </mxCell>
        <mxCell id="vR_F0ComAz1rM-JYzLv0-22" value="cvr_id" style="text;html=1;align=center;verticalAlign=middle;resizable=0;points=[];autosize=1;strokeColor=none;fillColor=none;" vertex="1" parent="1">
          <mxGeometry x="640" y="248" width="60" height="30" as="geometry" />
        </mxCell>
        <mxCell id="vR_F0ComAz1rM-JYzLv0-24" value="oa_id" style="text;html=1;align=center;verticalAlign=middle;resizable=0;points=[];autosize=1;strokeColor=none;fillColor=none;" vertex="1" parent="1">
          <mxGeometry x="580" y="320" width="50" height="30" as="geometry" />
        </mxCell>
        <mxCell id="vR_F0ComAz1rM-JYzLv0-26" value="org_id" style="text;html=1;strokeColor=none;fillColor=none;align=center;verticalAlign=middle;whiteSpace=wrap;rounded=0;" vertex="1" parent="1">
          <mxGeometry x="340" y="218" width="60" height="30" as="geometry" />
        </mxCell>
        <mxCell id="vR_F0ComAz1rM-JYzLv0-29" value="oa_id" style="text;html=1;align=center;verticalAlign=middle;resizable=0;points=[];autosize=1;strokeColor=none;fillColor=none;" vertex="1" parent="1">
          <mxGeometry x="530" y="220" width="50" height="30" as="geometry" />
        </mxCell>
      </root>
    </mxGraphModel>
  </diagram>
</mxfile>
